<svg width="54" height="44" viewBox="0 0 54 44" fill="none" xmlns="http://www.w3.org/2000/svg">
<rect width="54" height="44" rx="6" fill="#F3F4F6"/>
<path d="M36 31L30 25L36 31ZM32 20C32 20.9193 31.8189 21.8295 31.4672 22.6788C31.1154 23.5281 30.5998 24.2997 29.9497 24.9497C29.2997 25.5998 28.5281 26.1154 27.6788 26.4672C26.8295 26.8189 25.9193 27 25 27C24.0807 27 23.1705 26.8189 22.3212 26.4672C21.4719 26.1154 20.7003 25.5998 20.0503 24.9497C19.4002 24.2997 18.8846 23.5281 18.5328 22.6788C18.1811 21.8295 18 20.9193 18 20C18 18.1435 18.7375 16.363 20.0503 15.0503C21.363 13.7375 23.1435 13 25 13C26.8565 13 28.637 13.7375 29.9497 15.0503C31.2625 16.363 32 18.1435 32 20Z" stroke="#868686" stroke-width="1.5" stroke-linecap="round" stroke-linejoin="round"/>
</svg>
